<svg width="102" height="18" viewBox="0 0 102 18" fill="none" xmlns="http://www.w3.org/2000/svg">
<path d="M5.44218 18C4.45361 18 3.58449 17.8529 2.82972 17.5586C2.0775 17.2644 1.45487 16.8255 0.964401 16.2421C0.550169 15.75 0.237592 15.1615 0.0215813 14.4741C-0.0470338 14.2559 0.0520775 14.0225 0.260464 13.9287L2.43836 12.9622C2.66199 12.8633 2.92375 12.9648 3.02032 13.1905C3.2465 13.7055 3.54636 14.1063 3.91993 14.3929C4.39007 14.7531 4.95679 14.9332 5.62006 14.9332C6.33163 14.9332 6.88055 14.781 7.25921 14.4715C7.6404 14.1646 7.831 13.7359 7.831 13.1855V12.3966C7.831 11.9527 7.70393 11.6026 7.44726 11.3464C7.19313 11.0927 6.85514 10.8847 6.43836 10.7224C6.02159 10.56 5.5667 10.4078 5.07114 10.2607C4.51968 10.0908 3.96822 9.90558 3.41167 9.70265C2.85767 9.49972 2.34687 9.2283 1.88181 8.88332C1.41676 8.54087 1.04064 8.08427 0.758557 7.51353C0.473931 6.94279 0.334164 6.2097 0.334164 5.31173V4.83991C0.334164 3.30524 0.806848 2.11302 1.74967 1.26832C2.69249 0.423619 4.03429 0 5.77762 0C7.08893 0 8.17153 0.314543 9.02795 0.938557C9.8005 1.50423 10.3494 2.3261 10.6747 3.40164C10.7357 3.60457 10.6315 3.82272 10.4384 3.91657L8.3977 4.89572C8.17153 5.00479 7.89961 4.89825 7.8005 4.66742C7.59466 4.18799 7.33545 3.81511 7.02287 3.5513C6.62134 3.21139 6.14611 3.04143 5.59465 3.04143C4.92121 3.04143 4.40278 3.18348 4.03938 3.46505C3.67597 3.74915 3.493 4.1398 3.493 4.64205V5.23563C3.493 5.73788 3.63531 6.12599 3.9174 6.40502C4.20202 6.68405 4.57559 6.90727 5.04065 7.07215C5.50571 7.23704 6.00126 7.40445 6.52985 7.57441C7.07115 7.75197 7.60482 7.94222 8.12833 8.14515C8.65183 8.34808 9.1296 8.6195 9.56162 8.96449C9.99364 9.30693 10.3418 9.75592 10.6061 10.3038C10.8678 10.8543 11 11.5443 11 12.3763V13.1398C11 14.6669 10.5146 15.8591 9.54129 16.7114C8.57051 17.5637 7.20076 17.9899 5.43456 17.9899L5.44218 18Z" fill="#6276F0"/>
<path d="M14 17.5745V1.42555C14 1.19076 14.2017 1 14.45 1H16.7644C17.0127 1 17.2144 1.19076 17.2144 1.42555V17.5745C17.2144 17.8092 17.0127 18 16.7644 18H14.45C14.2017 18 14 17.8092 14 17.5745ZM15.2852 3.53374V1.42555C15.2852 1.19076 15.4869 1 15.7352 1H23.55C23.7983 1 24 1.19076 24 1.42555V3.53374C24 3.76852 23.7983 3.95929 23.55 3.95929H15.7352C15.4869 3.95929 15.2852 3.76852 15.2852 3.53374ZM15.2852 10.5944V8.51072C15.2852 8.27593 15.4869 8.08517 15.7352 8.08517H22.5622C22.8104 8.08517 23.0122 8.27593 23.0122 8.51072V10.5944C23.0122 10.8292 22.8104 11.02 22.5622 11.02H15.7352C15.4869 11.02 15.2852 10.8292 15.2852 10.5944ZM15.2852 17.5745V15.4663C15.2852 15.2315 15.4869 15.0407 15.7352 15.0407H23.55C23.7983 15.0407 24 15.2315 24 15.4663V17.5745C24 17.8092 23.7983 18 23.55 18H15.7352C15.4869 18 15.2852 17.8092 15.2852 17.5745Z" fill="#6276F0"/>
<path d="M26 17.5741V1.42586C26 1.1909 26.1942 1 26.4332 1H28.8558C29.0301 1 29.187 1.10279 29.2542 1.25943L34.3035 12.9485C34.3658 13.0904 34.3434 13.2568 34.2463 13.3792L34.0944 13.5677V1.42586C34.0944 1.1909 34.2886 1 34.5276 1H36.5668C36.8058 1 37 1.1909 37 1.42586V17.5741C37 17.8091 36.8058 18 36.5668 18H34.1044C33.9326 18 33.7757 17.8997 33.7085 17.7455L28.7064 6.46516C28.6442 6.32565 28.6641 6.16657 28.7537 6.0442L28.8932 5.85574V17.5741C28.8932 17.8091 28.699 18 28.4599 18H26.4332C26.1942 18 26 17.8091 26 17.5741Z" fill="#6276F0"/>
<path d="M39 3.50928V1.42555C39 1.19076 39.2047 1 39.4566 1H47.5434C47.7953 1 48 1.19076 48 1.42555V3.50928C48 3.74407 47.7953 3.93483 47.5434 3.93483H39.4566C39.2047 3.93483 39 3.74407 39 3.50928ZM41.8574 17.5745V2.84161C41.8574 2.60682 42.0621 2.41606 42.314 2.41606H44.6755C44.9274 2.41606 45.1321 2.60682 45.1321 2.84161V17.5745C45.1321 17.8092 44.9274 18 44.6755 18H42.314C42.0621 18 41.8574 17.8092 41.8574 17.5745Z" fill="#6276F0"/>
<path d="M53 1.42555V17.5745C53 17.8092 52.8153 18 52.588 18H50.412C50.1847 18 50 17.8092 50 17.5745V1.42555C50 1.19076 50.1847 1 50.412 1H52.588C52.8153 1 53 1.19076 53 1.42555Z" fill="#6276F0"/>
<path d="M56 17.5741V1.42586C56 1.1909 56.2119 1 56.4727 1H59.1161C59.3063 1 59.4775 1.10279 59.5508 1.25943L65.0604 12.9485C65.1284 13.0904 65.1039 13.2568 64.9952 13.3792L64.8295 13.5677V1.42586C64.8295 1.1909 65.0414 1 65.3022 1H67.5273C67.7881 1 68 1.1909 68 1.42586V17.5741C68 17.8091 67.7881 18 67.5273 18H64.8404C64.6529 18 64.4818 17.8997 64.4084 17.7455L58.9531 6.46516C58.8852 6.32565 58.907 6.16657 59.0048 6.0442L59.1569 5.85574V17.5741C59.1569 17.8091 58.945 18 58.6842 18H56.4727C56.2119 18 56 17.8091 56 17.5741Z" fill="#6276F0"/>
<path d="M70 17.5745V1.42555C70 1.19076 70.2017 1 70.45 1H72.7644C73.0127 1 73.2144 1.19076 73.2144 1.42555V17.5745C73.2144 17.8092 73.0127 18 72.7644 18H70.45C70.2017 18 70 17.8092 70 17.5745ZM71.2852 3.53374V1.42555C71.2852 1.19076 71.4869 1 71.7352 1H79.55C79.7983 1 80 1.19076 80 1.42555V3.53374C80 3.76852 79.7983 3.95929 79.55 3.95929H71.7352C71.4869 3.95929 71.2852 3.76852 71.2852 3.53374ZM71.2852 10.5944V8.51072C71.2852 8.27593 71.4869 8.08517 71.7352 8.08517H78.5622C78.8104 8.08517 79.0122 8.27593 79.0122 8.51072V10.5944C79.0122 10.8292 78.8104 11.02 78.5622 11.02H71.7352C71.4869 11.02 71.2852 10.8292 71.2852 10.5944ZM71.2852 17.5745V15.4663C71.2852 15.2315 71.4869 15.0407 71.7352 15.0407H79.55C79.7983 15.0407 80 15.2315 80 15.4663V17.5745C80 17.8092 79.7983 18 79.55 18H71.7352C71.4869 18 71.2852 17.8092 71.2852 17.5745Z" fill="#6276F0"/>
<path d="M82 17.5745V1.42555C82 1.19076 82.222 1 82.4952 1H85.0423C85.3155 1 85.5375 1.19076 85.5375 1.42555V17.5745C85.5375 17.8092 85.3155 18 85.0423 18H82.4952C82.222 18 82 17.8092 82 17.5745ZM83.5112 17.5745V15.4907C83.5112 15.2559 83.7332 15.0652 84.0064 15.0652H89.5048C89.778 15.0652 90 15.2559 90 15.4907V17.5745C90 17.8092 89.778 18 89.5048 18H84.0064C83.7332 18 83.5112 17.8092 83.5112 17.5745Z" fill="#6276F0"/>
<path d="M96.4409 18C95.4526 18 94.5837 17.8529 93.8291 17.5586C93.077 17.2644 92.4545 16.8255 91.9642 16.2421C91.5501 15.75 91.2375 15.1615 91.0216 14.4741C90.953 14.2559 91.0521 14.0225 91.2604 13.9287L93.4378 12.9622C93.6614 12.8633 93.9231 12.9648 94.0196 13.1905C94.2457 13.7055 94.5456 14.1063 94.919 14.3929C95.3891 14.7531 95.9556 14.9332 96.6188 14.9332C97.3302 14.9332 97.8764 14.781 98.2575 14.4715C98.6386 14.1646 98.8292 13.7359 98.8292 13.1855V12.3966C98.8292 11.9527 98.7022 11.6026 98.4455 11.3464C98.1915 11.0927 97.8536 10.8847 97.4369 10.7224C97.0202 10.56 96.5654 10.4078 96.07 10.2607C95.5186 10.0908 94.9673 9.90558 94.4109 9.70265C93.857 9.49972 93.3463 9.2283 92.8814 8.88332C92.4164 8.54087 92.0404 8.08427 91.7584 7.51353C91.4738 6.94279 91.3341 6.2097 91.3341 5.31173V4.83991C91.3341 3.30524 91.8067 2.11302 92.7493 1.26832C93.6919 0.423619 95.0334 0 96.7763 0C98.0873 0 99.1722 0.314543 100.026 0.938557C100.798 1.50423 101.347 2.3261 101.672 3.40164C101.733 3.60457 101.629 3.82272 101.438 3.91657L99.3983 4.89572C99.1722 5.00479 98.9003 4.89825 98.8012 4.66742C98.5954 4.18799 98.3363 3.81511 98.0238 3.5513C97.6223 3.21139 97.1472 3.04143 96.5959 3.04143C95.9226 3.04143 95.4043 3.18348 95.041 3.46505C94.6777 3.74915 94.4947 4.1398 94.4947 4.64205V5.23563C94.4947 5.73788 94.637 6.12599 94.919 6.40502C95.2011 6.68405 95.5771 6.90727 96.042 7.07215C96.507 7.23704 97.0024 7.40445 97.5309 7.57441C98.0721 7.75197 98.6056 7.94222 99.129 8.14515C99.6524 8.34808 100.13 8.6195 100.562 8.96449C100.994 9.30693 101.344 9.75592 101.606 10.3038C101.87 10.8543 102 11.5443 102 12.3763V13.1398C102 14.6669 101.515 15.8591 100.542 16.7114C99.5711 17.5637 98.2016 17.9899 96.4358 17.9899L96.4409 18Z" fill="#6276F0"/>
</svg>
