<svg width="180" height="39" viewBox="0 0 180 39" fill="none" xmlns="http://www.w3.org/2000/svg">
<path d="M20.8381 33H18.1582C15.9241 33 14.1135 31.1891 14.1135 28.9547V26.2135C14.1135 25.481 13.5198 24.8854 12.7856 24.8854H10.0447C7.8106 24.8854 6 23.0745 6 20.8401V18.1599C6 15.9255 7.8106 14.1146 10.0447 14.1146H11.6168C12.1938 14.1146 12.6617 14.5826 12.6617 15.1597C12.6617 15.7368 12.1938 16.2048 11.6168 16.2048H10.0447C8.96465 16.2048 8.08802 17.0815 8.08802 18.1617V20.842C8.08802 21.9222 8.96465 22.7989 10.0447 22.7989H12.7856C14.672 22.7989 16.2034 24.3286 16.2034 26.2172V28.9584C16.2034 30.0386 17.08 30.9154 18.1601 30.9154H20.8399C21.92 30.9154 22.7966 30.0386 22.7966 28.9584V26.9312C22.7966 25.2202 22.1308 23.6109 20.9213 22.4012L16.6047 18.0822C15.0012 16.4767 14.1172 14.344 14.1172 12.0744V10.0453C14.1172 7.81085 15.9278 6 18.1619 6H20.8418C23.0759 6 24.8865 7.81085 24.8865 10.0453V12.7865C24.8865 13.519 25.4802 14.1146 26.2144 14.1146H28.9553C31.1894 14.1146 33 15.9255 33 18.1599V20.8401C33 23.0745 31.1894 24.8854 28.9553 24.8854H27.3851C26.8081 24.8854 26.3402 24.4174 26.3402 23.8403C26.3402 23.2632 26.8081 22.7952 27.3851 22.7952H28.9553C30.0353 22.7952 30.912 21.9185 30.912 20.8383V18.158C30.912 17.0778 30.0353 16.2011 28.9553 16.2011H26.2107C24.3243 16.2011 22.7948 14.6714 22.7948 12.7847V10.0453C22.7948 8.96506 21.9181 8.08831 20.8381 8.08831H18.1582C17.0782 8.08831 16.2015 8.96321 16.2015 10.0453V12.0725C16.2015 13.7835 16.8673 15.3928 18.0769 16.6025L22.3935 20.9196C23.9988 22.5233 24.881 24.6579 24.881 26.9275V28.9547C24.8828 31.1873 23.0722 33 20.8381 33Z" fill="#6276F0"/>
<path fill-rule="evenodd" clip-rule="evenodd" d="M19.5 36.9255C29.1239 36.9255 36.9255 29.1239 36.9255 19.5C36.9255 9.87614 29.1239 2.07447 19.5 2.07447C9.87614 2.07447 2.07447 9.87614 2.07447 19.5C2.07447 29.1239 9.87614 36.9255 19.5 36.9255ZM19.5 39C30.2696 39 39 30.2696 39 19.5C39 8.73045 30.2696 0 19.5 0C8.73045 0 0 8.73045 0 19.5C0 30.2696 8.73045 39 19.5 39Z" fill="#6276F0"/>
<path d="M54.0939 14.4078C54.0939 10.9665 55.8154 9 59.1646 9C62.5138 9 64.2354 10.9665 64.2354 14.4078C64.2354 14.7812 63.9271 15.0838 63.5467 15.0838H61.8558C61.3722 15.0838 60.9801 14.6989 60.9801 14.2241V14.1927C60.9801 12.6564 60.3541 12.0726 59.2585 12.0726C58.163 12.0726 57.537 12.6564 57.537 14.1927C57.537 15.7598 58.2256 16.9274 60.4793 18.8631C63.3589 21.352 64.2667 23.1341 64.2667 25.5922C64.2667 29.0335 62.5138 31 59.1333 31C55.7528 31 54 29.0335 54 25.5922V25.1306C54 24.6558 54.3921 24.2709 54.8757 24.2709H56.3796C56.8632 24.2709 57.2553 24.6558 57.2553 25.1306V25.8073C57.2553 27.3436 57.9439 27.8966 59.0394 27.8966C60.135 27.8966 60.8236 27.3436 60.8236 25.8073C60.8236 24.2402 60.135 23.0726 57.8813 21.1369C55.0016 18.648 54.0939 16.8659 54.0939 14.4078Z" fill="#6276F0"/>
<path d="M73.314 12.1429C72.8608 12.1429 72.4933 12.5365 72.4933 13.0222V17.3921C72.4933 17.8778 72.8608 18.2714 73.314 18.2714H76.102C76.5552 18.2714 76.9227 18.6651 76.9227 19.1507V20.535C76.9227 21.0206 76.5552 21.4143 76.102 21.4143H73.314C72.8608 21.4143 72.4933 21.808 72.4933 22.2936V26.9778C72.4933 27.4635 72.8608 27.8571 73.314 27.8571H77.246C77.6992 27.8571 78.0667 28.2508 78.0667 28.7364V30.1207C78.0667 30.6063 77.6992 31 77.246 31H70.0873C69.6341 31 69.2667 30.6063 69.2667 30.1207V9.8793C69.2667 9.39367 69.6341 9 70.0873 9H77.246C77.6992 9 78.0667 9.39367 78.0667 9.8793V11.2636C78.0667 11.7492 77.6992 12.1429 77.246 12.1429H73.314Z" fill="#6276F0"/>
<path d="M91.7239 31C91.2976 31 90.9246 30.732 90.8149 30.347L86.4698 15.0921C86.4653 15.0765 86.4503 15.0657 86.433 15.0657C86.412 15.0657 86.395 15.0816 86.395 15.1013V30.1207C86.395 30.6063 85.9739 31 85.4544 31H84.0073C83.4878 31 83.0667 30.6063 83.0667 30.1207V9.8793C83.0667 9.39367 83.4878 9 84.0073 9H86.9823C87.409 9 87.7823 9.26852 87.8916 9.65412L91.4305 22.1421C91.4349 22.1577 91.45 22.1686 91.4672 22.1686C91.4882 22.1686 91.5052 22.1527 91.5052 22.133V9.8793C91.5052 9.39367 91.9264 9 92.4458 9H93.8594C94.3789 9 94.8 9.39367 94.8 9.8793V30.1207C94.8 30.6063 94.3789 31 93.8594 31H91.7239Z" fill="#6276F0"/>
<path d="M100.645 12.1429C100.178 12.1429 99.8 11.7492 99.8 11.2636V9.8793C99.8 9.39367 100.178 9 100.645 9H109.222C109.688 9 110.067 9.39367 110.067 9.8793V11.2636C110.067 11.7492 109.688 12.1429 109.222 12.1429H107.439C106.972 12.1429 106.594 12.5365 106.594 13.0222V30.1207C106.594 30.6063 106.216 31 105.749 31H104.117C103.651 31 103.273 30.6063 103.273 30.1207V13.0222C103.273 12.5365 102.894 12.1429 102.428 12.1429H100.645Z" fill="#6276F0"/>
<path d="M116.186 31C115.568 31 115.067 30.6063 115.067 30.1207V9.8793C115.067 9.39367 115.568 9 116.186 9H118.348C118.966 9 119.467 9.39367 119.467 9.8793V30.1207C119.467 30.6063 118.966 31 118.348 31H116.186Z" fill="#6276F0"/>
<path d="M132.042 31C131.669 31 131.342 30.732 131.246 30.347L127.444 15.0921C127.441 15.0765 127.427 15.0657 127.412 15.0657C127.394 15.0657 127.379 15.0816 127.379 15.1013V30.1207C127.379 30.6063 127.011 31 126.556 31H125.29C124.835 31 124.467 30.6063 124.467 30.1207V9.8793C124.467 9.39367 124.835 9 125.29 9H127.893C128.266 9 128.593 9.26852 128.688 9.65412L131.785 22.1421C131.789 22.1577 131.802 22.1686 131.817 22.1686C131.836 22.1686 131.85 22.1527 131.85 22.133V9.8793C131.85 9.39367 132.219 9 132.673 9H133.91C134.365 9 134.733 9.39367 134.733 9.8793V30.1207C134.733 30.6063 134.365 31 133.91 31H132.042Z" fill="#6276F0"/>
<path d="M144.455 12.1429C143.926 12.1429 143.498 12.5365 143.498 13.0222V17.3921C143.498 17.8778 143.926 18.2714 144.455 18.2714H147.708C148.237 18.2714 148.665 18.6651 148.665 19.1507V20.535C148.665 21.0206 148.237 21.4143 147.708 21.4143H144.455C143.926 21.4143 143.498 21.808 143.498 22.2936V26.9778C143.498 27.4635 143.926 27.8571 144.455 27.8571H149.043C149.571 27.8571 150 28.2508 150 28.7364V30.1207C150 30.6063 149.571 31 149.043 31H140.691C140.162 31 139.733 30.6063 139.733 30.1207V9.8793C139.733 9.39367 140.162 9 140.691 9H149.043C149.571 9 150 9.39367 150 9.8793V11.2636C150 11.7492 149.571 12.1429 149.043 12.1429H144.455Z" fill="#6276F0"/>
<path d="M155.846 31C155.379 31 155 30.6063 155 30.1207V9.8793C155 9.39367 155.379 9 155.846 9H157.48C157.948 9 158.326 9.39367 158.326 9.8793V26.9778C158.326 27.4635 158.705 27.8571 159.173 27.8571H162.954C163.421 27.8571 163.8 28.2508 163.8 28.7364V30.1207C163.8 30.6063 163.421 31 162.954 31H155.846Z" fill="#6276F0"/>
<path d="M168.894 14.4078C168.894 10.9665 170.615 9 173.965 9C177.314 9 179.035 10.9665 179.035 14.4078C179.035 14.7812 178.727 15.0838 178.347 15.0838H176.656C176.172 15.0838 175.78 14.6989 175.78 14.2241V14.1927C175.78 12.6564 175.154 12.0726 174.059 12.0726C172.963 12.0726 172.337 12.6564 172.337 14.1927C172.337 15.7598 173.026 16.9274 175.279 18.8631C178.159 21.352 179.067 23.1341 179.067 25.5922C179.067 29.0335 177.314 31 173.933 31C170.553 31 168.8 29.0335 168.8 25.5922V25.1306C168.8 24.6558 169.192 24.2709 169.676 24.2709H171.18C171.663 24.2709 172.055 24.6558 172.055 25.1306V25.8073C172.055 27.3436 172.744 27.8966 173.839 27.8966C174.935 27.8966 175.624 27.3436 175.624 25.8073C175.624 24.2402 174.935 23.0726 172.681 21.1369C169.802 18.648 168.894 16.8659 168.894 14.4078Z" fill="#6276F0"/>
</svg>